<svg width="24" height="18" viewBox="0 0 24 18" fill="none" xmlns="http://www.w3.org/2000/svg">
<path d="M0 2.68421V0.789474H5.05263L10.1053 10.8947H18.3158L21.4737 3.94737H24L19.5789 12.7895H8.8421L3.78947 2.68421H0Z" fill="white"/>
<path d="M19.5789 15.6316C19.5789 16.5036 18.872 17.2105 18 17.2105C17.128 17.2105 16.4211 16.5036 16.4211 15.6316C16.4211 14.7596 17.128 14.0526 18 14.0526C18.872 14.0526 19.5789 14.7596 19.5789 15.6316Z" fill="white"/>
<path d="M9.78947 17.2105C10.6615 17.2105 11.3684 16.5036 11.3684 15.6316C11.3684 14.7596 10.6615 14.0526 9.78947 14.0526C8.91745 14.0526 8.21053 14.7596 8.21053 15.6316C8.21053 16.5036 8.91745 17.2105 9.78947 17.2105Z" fill="white"/>
</svg>
