<svg width="32" height="30" viewBox="0 0 32 30" fill="none" xmlns="http://www.w3.org/2000/svg">
  <style>
    #favicon-letter {
      fill: #000;
    }
    @media (prefers-color-scheme: dark) {
      #favicon-letter {
        fill: #fff;
      }
    }
  </style>
  <path d="M28.9172 25.663C25.4112 28.25 20.3362 29.625 15.9612 29.625C9.8302 29.625 4.3112 27.363 0.136197 23.587C-0.188803 23.293 0.0981973 22.887 0.492197 23.118C4.9982 25.743 10.5732 27.318 16.3302 27.318C20.2112 27.318 24.4802 26.512 28.4112 24.843C28.9982 24.593 29.4982 25.238 28.9172 25.663Z" fill="#FF9900"/>
  <path d="M30.3732 24C29.9232 23.425 27.4112 23.725 26.2792 23.863C25.9352 23.901 25.8852 23.607 26.1922 23.388C28.1982 21.982 31.4862 22.388 31.8672 22.857C32.2542 23.332 31.7672 26.626 29.8862 28.201C29.5982 28.445 29.3232 28.314 29.4482 27.995C29.8792 26.939 30.8232 24.575 30.3732 24Z" fill="#FF9900"/>
  <path id="favicon-letter" fill-rule="evenodd" clip-rule="evenodd" d="M15.9179 0C21.8073 0 24.9922 4.91581 24.9922 11.1661C24.9922 17.2092 21.4738 22 15.9179 22C10.1389 22 6.99221 17.0842 6.99221 10.959C6.98819 4.79077 10.173 0 15.9179 0ZM15.954 4.0405C13.0284 4.0405 12.8435 7.91688 12.8435 10.3337C12.8435 12.7506 12.8053 17.9165 15.9179 17.9165C18.9922 17.9165 19.1329 13.751 19.1329 11.2091C19.1329 9.54245 19.0605 7.54174 18.5421 5.95915C18.098 4.58366 17.2099 4.0405 15.95 4.0405H15.954Z" />
</svg>
