<svg width="634" height="193" viewBox="0 0 634 193" fill="none" xmlns="http://www.w3.org/2000/svg">
<path fill-rule="evenodd" clip-rule="evenodd" d="M391.81 150.36C354.74 177.71 301 192.26 254.72 192.26C189.86 192.26 131.46 168.26 87.26 128.38C83.79 125.25 86.88 120.96 91.06 123.38C138.74 151.13 197.71 167.84 258.61 167.84C302.519 167.623 345.954 158.736 386.42 141.69C392.69 139.04 397.94 145.83 391.81 150.36Z" fill="#FF9900"/>
<path fill-rule="evenodd" clip-rule="evenodd" d="M407.23 132.75C402.49 126.68 375.89 129.87 363.94 131.3C360.32 131.73 359.76 128.58 363.02 126.3C384.24 111.4 419.02 115.7 423.02 120.69C427.02 125.68 422 160.56 402.1 177.2C399.04 179.76 396.1 178.39 397.49 175.01C402 163.84 412 138.82 407.23 132.75Z" fill="#FF9900"/>
<path fill-rule="evenodd" clip-rule="evenodd" d="M44.75 0.97998C74.06 0.97998 89.91 26.14 89.91 58.13C89.91 89.06 72.4 113.58 44.75 113.58C15.99 113.58 0.330036 88.42 0.330036 57.07C0.310036 25.5 16.16 0.97998 44.75 0.97998ZM44.93 21.66C30.37 21.66 29.45 41.5 29.45 53.87C29.45 66.24 29.26 92.68 44.75 92.68C60.05 92.68 60.75 71.36 60.75 58.35C60.75 49.82 60.39 39.58 57.81 31.48C55.6 24.44 51.18 21.66 44.91 21.66H44.93Z" fill="white"/>
<path fill-rule="evenodd" clip-rule="evenodd" d="M128 111.45H108.28C107.389 111.409 106.542 111.049 105.894 110.436C105.246 109.823 104.84 108.997 104.75 108.11V6.76001C104.76 6.2706 104.867 5.78805 105.064 5.34003C105.262 4.892 105.545 4.4873 105.899 4.14914C106.253 3.81098 106.671 3.54601 107.127 3.36942C107.584 3.19282 108.071 3.10804 108.56 3.12H127C127.91 3.15066 128.778 3.51335 129.439 4.13968C130.101 4.76601 130.51 5.6127 130.59 6.52002V19.76H130.96C135.75 6.96001 144.78 0.98999 156.96 0.98999C169.31 0.98999 177.05 6.99001 182.58 19.76C187.37 6.96001 198.25 0.98999 209.86 0.98999C218.15 0.98999 227.19 4.40002 232.71 12.08C238.98 20.61 237.71 32.98 237.71 43.85V107.85C237.7 108.34 237.593 108.823 237.396 109.271C237.199 109.72 236.915 110.125 236.561 110.464C236.207 110.803 235.79 111.069 235.334 111.247C234.877 111.425 234.39 111.511 233.9 111.5H214.1C213.156 111.459 212.263 111.06 211.603 110.384C210.944 109.707 210.567 108.805 210.55 107.86V54.13C210.55 49.87 210.92 39.2 209.99 35.13C208.52 28.31 204.1 26.39 198.38 26.39C195.816 26.4687 193.331 27.298 191.234 28.7751C189.136 30.2522 187.518 32.3123 186.58 34.7C184.58 39.82 184.74 48.35 184.74 54.11V107.83C184.731 108.32 184.625 108.804 184.428 109.253C184.232 109.702 183.948 110.108 183.594 110.447C183.24 110.787 182.822 111.052 182.365 111.23C181.908 111.407 181.42 111.492 180.93 111.48H161.21C160.267 111.437 159.375 111.037 158.716 110.361C158.057 109.685 157.679 108.784 157.66 107.84V54.13C157.66 42.83 159.5 26.19 145.49 26.19C131.3 26.19 131.85 42.4 131.85 54.13V107.85C131.835 108.339 131.723 108.821 131.52 109.267C131.318 109.713 131.03 110.115 130.673 110.45C130.315 110.784 129.895 111.045 129.436 111.216C128.977 111.388 128.489 111.467 128 111.45Z" fill="white"/>
<path fill-rule="evenodd" clip-rule="evenodd" d="M313 63.05C313 70.74 313.19 77.16 309.31 84C306.17 89.55 301.18 93 295.64 93C288.07 93 283.64 87.23 283.64 78.68C283.64 61.86 298.73 58.81 313.01 58.81L313 63.05ZM333 111.19C332.364 111.739 331.574 112.078 330.738 112.161C329.902 112.243 329.061 112.065 328.33 111.65C321.78 106.2 320.6 103.65 317.02 98.49C306.18 109.49 298.5 112.85 284.46 112.85C267.84 112.85 254.91 102.59 254.91 82.07C254.91 66.07 263.59 55.14 275.96 49.8C286.68 45.1 301.64 44.24 313.09 42.96V40.39C313.09 35.69 313.46 30.13 310.69 26.07C308.29 22.44 303.69 20.94 299.61 20.94C292.08 20.94 285.38 24.8 283.74 32.8C283.4 34.58 282.1 36.34 280.31 36.43L261.17 34.36C260.699 34.2968 260.245 34.1376 259.838 33.8922C259.43 33.6469 259.077 33.3207 258.801 32.9336C258.524 32.5466 258.33 32.107 258.23 31.642C258.13 31.177 258.127 30.6964 258.22 30.23C262.62 7.01001 283.59 0 302.38 0C311.98 0 324.55 2.56002 332.12 9.83002C341.73 18.83 340.8 30.78 340.8 43.83V74.6C340.8 83.85 344.65 87.91 348.26 92.9C349.52 94.69 349.8 96.83 348.19 98.14C344.19 101.52 336.99 107.75 333.05 111.26L333 111.19Z" fill="white"/>
<path fill-rule="evenodd" clip-rule="evenodd" d="M364.79 20.9999V6.5199C364.775 6.03382 364.859 5.54974 365.038 5.09757C365.217 4.6454 365.487 4.23473 365.831 3.89084C366.175 3.54696 366.586 3.27718 367.038 3.09815C367.49 2.91912 367.974 2.83462 368.46 2.84989H433.36C433.849 2.83369 434.337 2.91662 434.793 3.09366C435.249 3.27071 435.665 3.53823 436.016 3.88013C436.366 4.22203 436.643 4.63124 436.831 5.08317C437.02 5.5351 437.114 6.02041 437.11 6.50989V18.9299C437.11 21.0099 435.34 23.7299 432.22 28.0499L398.61 76.0499C411.09 75.7599 424.29 77.6199 435.61 83.9999C436.628 84.5573 437.483 85.3727 438.086 86.3644C438.69 87.3561 439.022 88.4892 439.05 89.6499V105.13C439.05 107.26 436.72 109.73 434.27 108.44C414.27 97.9799 387.78 96.8299 365.69 108.57C363.43 109.77 361.07 107.35 361.07 105.21V90.4899C361.07 88.1399 361.07 84.1099 363.49 80.4899L402.49 24.6099H368.53C368.045 24.6288 367.561 24.5493 367.107 24.3762C366.653 24.2032 366.239 23.9401 365.89 23.6028C365.54 23.2656 365.263 22.8611 365.074 22.4138C364.885 21.9664 364.788 21.4855 364.79 20.9999Z" fill="white"/>
<path fill-rule="evenodd" clip-rule="evenodd" d="M493 0.97998C522.31 0.97998 538.16 26.14 538.16 58.13C538.16 89.06 520.65 113.58 493 113.58C464.24 113.58 448.58 88.42 448.58 57.07C448.56 25.5 464.41 0.97998 493 0.97998ZM493.18 21.66C478.62 21.66 477.7 41.5 477.7 53.87C477.7 66.24 477.51 92.68 493 92.68C508.3 92.68 509 71.36 509 58.35C509 49.82 508.64 39.58 506.06 31.48C503.85 24.44 499.43 21.66 493.16 21.66H493.18Z" fill="white"/>
<path fill-rule="evenodd" clip-rule="evenodd" d="M576.14 111.45H556.47C555.528 111.407 554.637 111.007 553.98 110.33C553.322 109.654 552.947 108.753 552.93 107.81V6.42001C553.037 5.49661 553.485 4.64638 554.186 4.03595C554.887 3.42552 555.791 3.09887 556.72 3.12H575C575.813 3.15112 576.595 3.44456 577.227 3.95645C577.86 4.46834 578.31 5.17119 578.51 5.95999V21.46H578.88C584.41 7.59999 592.15 0.98999 605.79 0.98999C614.63 0.98999 623.3 4.18999 628.79 12.93C634 21.03 634 34.67 634 44.48V108.25C633.866 109.152 633.409 109.974 632.713 110.563C632.018 111.152 631.131 111.467 630.22 111.45H610.42C609.552 111.41 608.726 111.068 608.084 110.484C607.441 109.9 607.022 109.11 606.9 108.25V53.25C606.9 42.16 608.19 25.95 594.55 25.95C589.76 25.95 585.34 29.15 583.13 34.05C580.36 40.24 579.99 46.42 579.99 53.25V107.82C579.951 108.809 579.526 109.742 578.806 110.421C578.086 111.1 577.129 111.469 576.14 111.45Z" fill="white"/>
</svg>
